<svg width="24" height="24" viewBox="0 0 24 24" fill="none" xmlns="http://www.w3.org/2000/svg">
<g id="user gray">
<path id="Oval" fill-rule="evenodd" clip-rule="evenodd" d="M12 24C18.6274 24 24 18.6274 24 12C24 5.37258 18.6274 0 12 0C5.37258 0 0 5.37258 0 12C0 18.6274 5.37258 24 12 24Z" fill="#E8E8E8"/>
<path id="Combined Shape" fill-rule="evenodd" clip-rule="evenodd" d="M4.00812 20.9517C6.13017 22.8475 8.93049 24 12 24C15.0069 24 17.7555 22.8941 19.8612 21.0667C19.7997 21.1176 19.7392 21.1677 19.6798 21.2172C19.4883 21.0556 19.2804 20.9102 19.0504 20.7952L15.2161 18.8783C14.7207 18.631 14.4078 18.1243 14.4078 17.5705V16.0661C14.5155 15.9434 14.6387 15.7858 14.7705 15.5997C15.2931 14.8615 15.6884 14.0496 15.9624 13.1978C16.4542 13.0461 16.8165 12.5919 16.8165 12.0521V10.4463C16.8165 10.093 16.6598 9.77741 16.4152 9.55642V7.23512C16.4152 7.23512 16.8921 3.62276 12 3.62276C7.10787 3.62276 7.58471 7.23512 7.58471 7.23512V9.55642C7.34063 9.77741 7.18349 10.093 7.18349 10.4463V12.0521C7.18349 12.4755 7.40629 12.8473 7.73868 13.0624C8.13945 14.809 9.19051 16.0661 9.19051 16.0661V17.5333C9.19051 18.0686 8.89797 18.5608 8.42837 18.8172L4.8477 20.7703C4.63985 20.8835 4.45282 21.023 4.27847 21.1751C4.19121 21.1016 4.101 21.0272 4.00812 20.9517Z" fill="#999999"/>
</g>
</svg>
